<svg width="85" height="60" viewBox="0 0 85 60" fill="none" xmlns="http://www.w3.org/2000/svg">
<path d="M41.0417 20.0208C41.0417 21.6072 40.5713 23.158 39.6899 24.477C38.8086 25.796 37.5559 26.824 36.0903 27.4311C34.6247 28.0382 33.0119 28.197 31.456 27.8875C29.9002 27.5781 28.471 26.8142 27.3493 25.6924C26.2275 24.5707 25.4636 23.1415 25.1541 21.5856C24.8446 20.0297 25.0035 18.417 25.6106 16.9514C26.2176 15.4858 27.2457 14.2331 28.5647 13.3518C29.8837 12.4704 31.4345 12 33.0208 12C35.1474 12.0024 37.1861 12.8482 38.6898 14.3519C40.1934 15.8556 41.0393 17.8943 41.0417 20.0208ZM51.9792 28.0417C53.5655 28.0417 55.1163 27.5713 56.4353 26.6899C57.7543 25.8086 58.7824 24.5559 59.3894 23.0903C59.9965 21.6247 60.1554 20.0119 59.8459 18.456C59.5364 16.9002 58.7725 15.471 57.6507 14.3493C56.529 13.2275 55.0998 12.4636 53.5439 12.1541C51.9881 11.8446 50.3753 12.0035 48.9097 12.6106C47.4441 13.2176 46.1914 14.2457 45.3101 15.5647C44.4287 16.8837 43.9583 18.4345 43.9583 20.0208C43.9607 22.1474 44.8066 24.1861 46.3102 25.6898C47.8139 27.1934 49.8526 28.0393 51.9792 28.0417ZM33.0208 30.9583C31.4345 30.9583 29.8837 31.4287 28.5647 32.3101C27.2457 33.1914 26.2176 34.4441 25.6106 35.9097C25.0035 37.3753 24.8446 38.9881 25.1541 40.5439C25.4636 42.0998 26.2275 43.529 27.3493 44.6507C28.471 45.7725 29.9002 46.5364 31.456 46.8459C33.0119 47.1554 34.6247 46.9965 36.0903 46.3894C37.5559 45.7824 38.8086 44.7543 39.6899 43.4353C40.5713 42.1163 41.0417 40.5655 41.0417 38.9792C41.0393 36.8526 40.1934 34.8139 38.6898 33.3102C37.1861 31.8066 35.1474 30.9607 33.0208 30.9583ZM57.0833 37.5208H53.4375V33.875C53.4375 33.4882 53.2839 33.1173 53.0104 32.8438C52.7369 32.5703 52.3659 32.4167 51.9792 32.4167C51.5924 32.4167 51.2215 32.5703 50.948 32.8438C50.6745 33.1173 50.5208 33.4882 50.5208 33.875V37.5208H46.875C46.4882 37.5208 46.1173 37.6745 45.8438 37.948C45.5703 38.2215 45.4167 38.5924 45.4167 38.9792C45.4167 39.3659 45.5703 39.7369 45.8438 40.0104C46.1173 40.2839 46.4882 40.4375 46.875 40.4375H50.5208V44.0833C50.5208 44.4701 50.6745 44.841 50.948 45.1145C51.2215 45.388 51.5924 45.5417 51.9792 45.5417C52.3659 45.5417 52.7369 45.388 53.0104 45.1145C53.2839 44.841 53.4375 44.4701 53.4375 44.0833V40.4375H57.0833C57.4701 40.4375 57.841 40.2839 58.1145 40.0104C58.388 39.7369 58.5417 39.3659 58.5417 38.9792C58.5417 38.5924 58.388 38.2215 58.1145 37.948C57.841 37.6745 57.4701 37.5208 57.0833 37.5208Z" fill="white"/>
</svg>
