<svg width="20" height="20" viewBox="0 0 20 20" fill="none" xmlns="http://www.w3.org/2000/svg">
<path d="M10 8.52567L2.57079 5.85288M10 8.52567L17.4315 5.86172M10 8.52567V17.3993M4.27915 15.4809L9.1125 17.1868C9.44142 17.3029 9.60583 17.3609 9.7745 17.384C9.92417 17.4044 10.0758 17.4044 10.2255 17.384C10.3942 17.3609 10.5586 17.3029 10.8875 17.1868L15.7208 15.4809C16.3614 15.2548 16.6817 15.1418 16.9182 14.9391C17.1269 14.7601 17.2883 14.5322 17.3876 14.2757C17.5 13.9853 17.5 13.6456 17.5 12.9663V7.03382C17.5 6.35452 17.5 6.01487 17.3876 5.72446C17.2883 5.46796 17.1269 5.24003 16.9182 5.061C16.6817 4.8583 16.3614 4.74526 15.7208 4.51917L10.8875 2.81329C10.5586 2.69721 10.3942 2.63917 10.2255 2.61613C10.0758 2.5957 9.92417 2.5957 9.7745 2.61613C9.60583 2.63917 9.44142 2.69721 9.1125 2.81329L4.27915 4.51917C3.63858 4.74526 3.31829 4.8583 3.08187 5.061C2.87305 5.24003 2.71178 5.46796 2.61246 5.72446C2.5 6.01487 2.5 6.35452 2.5 7.03382V12.9663C2.5 13.6456 2.5 13.9853 2.61246 14.2757C2.71178 14.5322 2.87305 14.7601 3.08187 14.9391C3.31829 15.1418 3.63858 15.2548 4.27915 15.4809Z" stroke="#464646" stroke-linecap="round" stroke-linejoin="round"/>
</svg>
