<svg width="30" height="30" viewBox="0 0 30 30" fill="none" xmlns="http://www.w3.org/2000/svg">
<path opacity="0.4" d="M19.35 3.75H9.4C5.0875 3.75 2.5 6.325 2.5 10.65V20.5875C2.5 24.925 5.0875 27.5 9.4 27.5H19.3375C23.6625 27.5 26.2375 24.925 26.2375 20.6V10.65C26.25 6.325 23.6625 3.75 19.35 3.75Z" fill="white"/>
<path d="M26.2753 3.72473C24.0378 1.47473 21.8503 1.42473 19.5503 3.72473L18.1378 5.12473C18.0128 5.24973 17.9753 5.42473 18.0253 5.58723C18.9003 8.64973 21.3503 11.0997 24.4128 11.9747C24.4503 11.9872 24.5128 11.9872 24.5503 11.9872C24.6753 11.9872 24.8003 11.9372 24.8878 11.8497L26.2753 10.4497C27.4128 9.31223 27.9753 8.22473 27.9753 7.11223C27.9753 5.98723 27.4128 4.87473 26.2753 3.72473Z" fill="white"/>
<path d="M22.3244 13.0248C21.9869 12.8623 21.6619 12.6998 21.3619 12.5123C21.1119 12.3623 20.8619 12.1998 20.6244 12.0248C20.4244 11.8998 20.1994 11.7123 19.9744 11.5248C19.9494 11.5123 19.8744 11.4498 19.7744 11.3498C19.3869 11.0373 18.9744 10.6123 18.5869 10.1498C18.5619 10.1248 18.4869 10.0498 18.4244 9.9373C18.2994 9.7998 18.1119 9.5623 17.9494 9.2998C17.8119 9.1248 17.6494 8.8748 17.4994 8.6123C17.3119 8.2998 17.1494 7.9873 16.9994 7.6623C16.8369 7.3123 16.7119 6.9873 16.5994 6.6748L9.87439 13.3998C9.43689 13.8373 9.01189 14.6623 8.92439 15.2748L8.38689 18.9998C8.27439 19.7873 8.48689 20.5248 8.97439 21.0123C9.38689 21.4248 9.94939 21.6373 10.5744 21.6373C10.7119 21.6373 10.8494 21.6248 10.9869 21.6123L14.6994 21.0873C15.3119 20.9998 16.1369 20.5873 16.5744 20.1373L23.2994 13.4123C22.9869 13.3123 22.6744 13.1748 22.3244 13.0248Z" fill="white"/>
</svg>
