<svg width="22" height="19" viewBox="0 0 22 19" fill="none" xmlns="http://www.w3.org/2000/svg">
<path d="M4.45733 10.441L10.4835 16.1714C10.6911 16.3688 10.7948 16.4675 10.9172 16.4918C10.9723 16.5027 11.029 16.5027 11.0842 16.4918C11.2065 16.4675 11.3103 16.3688 11.5179 16.1714L17.544 10.441C19.2395 8.82875 19.4454 6.17556 18.0194 4.31505L17.7513 3.96521C16.0454 1.73952 12.6212 2.11278 11.4225 4.65511C11.2532 5.01423 10.7482 5.01423 10.5788 4.65511C9.38022 2.11278 5.95598 1.73952 4.25007 3.96522L3.98194 4.31505C2.55594 6.17556 2.76183 8.82875 4.45733 10.441Z" fill="#5A5A5A" stroke="#5A5A5A" stroke-width="5"/>
</svg>
