<svg width="671" height="478" viewBox="0 0 671 478" fill="none" xmlns="http://www.w3.org/2000/svg">
<path d="M104.707 11.2929C104.317 10.9023 103.683 10.9023 103.293 11.2929L96.929 17.6568C96.5384 18.0474 96.5384 18.6805 96.929 19.071C97.3195 19.4616 97.9526 19.4616 98.3432 19.071L104 13.4142L109.657 19.071C110.047 19.4616 110.681 19.4616 111.071 19.071C111.462 18.6805 111.462 18.0474 111.071 17.6568L104.707 11.2929ZM105 450L105 12L103 12L103 450L105 450Z" fill="#00FF66"/>
<path d="M670.703 470.711C671.096 470.323 671.1 469.69 670.711 469.297L664.386 462.895C663.998 462.502 663.365 462.498 662.972 462.886C662.579 463.274 662.575 463.908 662.963 464.301L668.586 469.991L662.895 475.614C662.502 476.002 662.498 476.635 662.886 477.028C663.274 477.421 663.908 477.425 664.301 477.037L670.703 470.711ZM670.006 469L14.0058 465.036L13.9937 467.036L669.994 471L670.006 469Z" fill="#00FF66"/>
<path d="M6.29289 7.29289C5.90237 7.68341 5.90237 8.31657 6.29289 8.7071L12.6569 15.0711C13.0474 15.4616 13.6805 15.4616 14.0711 15.0711C14.4616 14.6805 14.4616 14.0474 14.0711 13.6568L8.41422 7.99999L14.0711 2.34314C14.4616 1.95261 14.4616 1.31945 14.0711 0.928925C13.6805 0.5384 13.0474 0.5384 12.6569 0.928925L6.29289 7.29289ZM100 7L7 6.99999L7 8.99999L100 9L100 7Z" fill="#00FF66"/>
<path d="M7.29444 459.709C7.68583 460.098 8.31899 460.097 8.70865 459.706L15.0585 453.328C15.4482 452.936 15.4468 452.303 15.0554 451.913C14.664 451.524 14.0308 451.525 13.6412 451.916L7.99685 457.586L2.3275 451.941C1.93611 451.552 1.30295 451.553 0.913287 451.945C0.523627 452.336 0.525028 452.969 0.916415 453.359L7.29444 459.709ZM6 7.00221L6.99998 459.002L8.99998 458.998L8 6.99779L6 7.00221Z" fill="#00FF66"/>
</svg>
