<svg width="199" height="468" viewBox="0 0 199 468" fill="none" xmlns="http://www.w3.org/2000/svg">
<path d="M191.707 11.2929C191.317 10.9023 190.683 10.9023 190.293 11.2929L183.929 17.6568C183.538 18.0474 183.538 18.6805 183.929 19.071C184.319 19.4616 184.953 19.4616 185.343 19.071L191 13.4142L196.657 19.071C197.047 19.4616 197.681 19.4616 198.071 19.071C198.462 18.6805 198.462 18.0474 198.071 17.6568L191.707 11.2929ZM192 450L192 12L190 12L190 450L192 450Z" fill="#00FF66"/>
<path d="M93.2929 7.29289C92.9024 7.68341 92.9024 8.31657 93.2929 8.7071L99.6569 15.0711C100.047 15.4616 100.681 15.4616 101.071 15.0711C101.462 14.6805 101.462 14.0474 101.071 13.6568L95.4142 7.99999L101.071 2.34314C101.462 1.95261 101.462 1.31945 101.071 0.928925C100.681 0.5384 100.047 0.5384 99.6569 0.928925L93.2929 7.29289ZM187 7L94 6.99999L94 8.99999L187 9L187 7Z" fill="#00FF66"/>
<path d="M0.292893 459.293C-0.0976333 459.683 -0.0976334 460.317 0.292892 460.707L6.65685 467.071C7.04738 467.462 7.68054 467.462 8.07107 467.071C8.46159 466.681 8.46159 466.047 8.07107 465.657L2.41422 460L8.07107 454.343C8.46159 453.953 8.46159 453.319 8.07107 452.929C7.68054 452.538 7.04738 452.538 6.65685 452.929L0.292893 459.293ZM94 459L1 459L1 461L94 461L94 459Z" fill="#00FF66"/>
<path d="M94.2944 459.709C94.6858 460.098 95.319 460.097 95.7087 459.706L102.059 453.328C102.448 452.936 102.447 452.303 102.055 451.913C101.664 451.524 101.031 451.525 100.641 451.916L94.9969 457.586L89.3275 451.941C88.9361 451.552 88.3029 451.553 87.9133 451.945C87.5236 452.336 87.525 452.969 87.9164 453.359L94.2944 459.709ZM93 7.00221L94 459.002L96 458.998L95 6.99779L93 7.00221Z" fill="#00FF66"/>
</svg>
