<svg width="85" height="60" viewBox="0 0 85 60" fill="none" xmlns="http://www.w3.org/2000/svg">
<path d="M26.5469 30.3108C26.5469 29.6018 27.1355 29.027 27.8616 29.027C37.3009 29.027 44.9529 36.499 44.9529 45.7162C44.9529 46.4252 44.3643 47 43.6382 47C42.9121 47 42.3235 46.4252 42.3235 45.7162C42.3235 37.9171 35.8487 31.5946 27.8616 31.5946C27.1355 31.5946 26.5469 31.0198 26.5469 30.3108Z" fill="white"/>
<path d="M26.5469 35.0811C26.5469 34.3497 27.1541 33.7568 27.9031 33.7568C34.6444 33.7568 40.1092 39.0931 40.1092 45.6757C40.1092 46.4071 39.502 47 38.753 47C38.004 47 37.3968 46.4071 37.3968 45.6757C37.3968 40.5558 33.1463 36.4054 27.9031 36.4054C27.1541 36.4054 26.5469 35.8125 26.5469 35.0811Z" fill="white"/>
<path d="M27.8385 39.4324C27.1252 39.4324 26.5469 39.9971 26.5469 40.6937C26.5469 41.3902 27.1252 41.955 27.8385 41.955C29.9786 41.955 31.7135 43.6491 31.7135 45.7387C31.7135 46.4353 32.2918 47 33.0051 47C33.7185 47 34.2968 46.4353 34.2968 45.7387C34.2968 42.2558 31.4053 39.4324 27.8385 39.4324Z" fill="white"/>
<path d="M25.622 26.3891C26.1508 26.1403 26.7439 26.0008 27.3703 26.0008C38.5054 26.0008 47.5322 34.8157 47.5322 45.6894C47.5322 46.1489 47.4515 46.59 47.3035 47C52.2879 46.983 54.9654 46.8187 56.8533 45.2312C58.9591 43.4604 59.3958 40.4963 60.2695 34.5678L60.769 31.1774C61.4491 26.5622 61.7891 24.2547 60.8204 22.2817C59.8519 20.3088 57.7902 19.1095 53.667 16.7109L51.185 15.2672C47.4408 13.0891 45.5685 12 43.4998 12C41.4311 12 39.5589 13.0891 35.8145 15.2672L33.3327 16.7109C29.2094 19.1095 27.1478 20.3088 26.1792 22.2817C25.6225 23.4155 25.4981 24.6599 25.622 26.3891Z" fill="white"/>
</svg>
