<svg width="60" height="60" viewBox="0 0 60 60" fill="none" xmlns="http://www.w3.org/2000/svg">
<path d="M21.7758 18.225C21.5427 17.9919 21.266 17.807 20.9614 17.6808C20.6569 17.5547 20.3305 17.4897 20.0008 17.4897C19.6712 17.4897 19.3448 17.5547 19.0402 17.6808C18.7356 17.807 18.4589 17.9919 18.2258 18.225C17.9927 18.4581 17.8078 18.7348 17.6817 19.0394C17.5555 19.3439 17.4906 19.6703 17.4906 20C17.4906 20.3296 17.5555 20.656 17.6817 20.9606C17.8078 21.2652 17.9927 21.5419 18.2258 21.775L26.4758 30L18.2258 38.225C17.9915 38.4574 17.8055 38.7339 17.6786 39.0385C17.5517 39.3432 17.4863 39.6699 17.4863 40C17.4863 40.33 17.5517 40.6568 17.6786 40.9614C17.8055 41.2661 17.9915 41.5426 18.2258 41.775C18.4582 42.0093 18.7347 42.1953 19.0394 42.3222C19.344 42.4491 19.6708 42.5145 20.0008 42.5145C20.3309 42.5145 20.6576 42.4491 20.9623 42.3222C21.2669 42.1953 21.5434 42.0093 21.7758 41.775L31.7758 31.775C32.0101 31.5426 32.1961 31.2661 32.3231 30.9614C32.45 30.6568 32.5153 30.33 32.5153 30C32.5153 29.6699 32.45 29.3432 32.3231 29.0385C32.1961 28.7339 32.0101 28.4574 31.7758 28.225L21.7758 18.225ZM40.0008 17.5C39.3378 17.5 38.7019 17.7634 38.2331 18.2322C37.7642 18.701 37.5008 19.3369 37.5008 20V40C37.5008 40.663 37.7642 41.2989 38.2331 41.7677C38.7019 42.2366 39.3378 42.5 40.0008 42.5C40.6639 42.5 41.2998 42.2366 41.7686 41.7677C42.2374 41.2989 42.5008 40.663 42.5008 40V20C42.5008 19.3369 42.2374 18.701 41.7686 18.2322C41.2998 17.7634 40.6639 17.5 40.0008 17.5Z" fill="black" fill-opacity="0.5"/>
</svg>
