<svg width="85" height="60" viewBox="0 0 85 60" fill="none" xmlns="http://www.w3.org/2000/svg">
<path d="M38.9167 30.3333C38.9167 28.2623 40.5957 26.5833 42.6667 26.5833C44.7377 26.5833 46.4167 28.2623 46.4167 30.3333C46.4167 32.4043 44.7377 34.0833 42.6667 34.0833C40.5957 34.0833 38.9167 32.4043 38.9167 30.3333Z" fill="white"/>
<path fill-rule="evenodd" clip-rule="evenodd" d="M26 30.3333C26 33.0657 26.7083 33.9858 28.1248 35.8262C30.9533 39.5007 35.6968 43.6667 42.6667 43.6667C49.6365 43.6667 54.38 39.5007 57.2085 35.8262C58.625 33.9858 59.3333 33.0657 59.3333 30.3333C59.3333 27.601 58.625 26.6809 57.2085 24.8406C54.38 21.1659 49.6365 17 42.6667 17C35.6968 17 30.9533 21.1659 28.1248 24.8406C26.7083 26.6809 26 27.601 26 30.3333ZM42.6667 24.0833C39.2149 24.0833 36.4167 26.8815 36.4167 30.3333C36.4167 33.7852 39.2149 36.5833 42.6667 36.5833C46.1185 36.5833 48.9167 33.7852 48.9167 30.3333C48.9167 26.8815 46.1185 24.0833 42.6667 24.0833Z" fill="white"/>
</svg>
