<svg width="60" height="60" viewBox="0 0 60 60" fill="none" xmlns="http://www.w3.org/2000/svg">
<g clip-path="url(#clip0_456468_53536)">
<path d="M57.5 30C57.5 45.1878 45.1878 57.5 30 57.5C14.8122 57.5 2.5 45.1878 2.5 30C2.5 14.8122 14.8122 2.5 30 2.5C45.1878 2.5 57.5 14.8122 57.5 30ZM7.51708 30C7.51708 42.417 17.583 52.483 30 52.483C42.417 52.483 52.483 42.417 52.483 30C52.483 17.583 42.417 7.51708 30 7.51708C17.583 7.51708 7.51708 17.583 7.51708 30Z" fill="#818181"/>
<path d="M30 12.5C28.6192 12.5 27.5 13.6193 27.5 15V31.1667C27.5 31.1667 27.5 31.8185 27.8168 32.3088C28.0288 32.7245 28.3592 33.0858 28.7935 33.3365L40.343 40.0047C41.5387 40.695 43.0677 40.2853 43.758 39.0895C44.4482 37.8938 44.0387 36.3647 42.843 35.6745L32.5 29.703V15C32.5 13.6193 31.3807 12.5 30 12.5Z" fill="#888585"/>
</g>
<defs>
<clipPath id="clip0_456468_53536">
<rect width="60" height="60" fill="white"/>
</clipPath>
</defs>
</svg>
