<svg width="50" height="50" viewBox="0 0 50 50" fill="none" xmlns="http://www.w3.org/2000/svg">
<g clip-path="url(#clip0_457094_553137)">
<path d="M47.9173 24.9997C47.9173 37.6561 37.6571 47.9163 25.0007 47.9163C12.3441 47.9163 2.08398 37.6561 2.08398 24.9997C2.08398 12.3432 12.3441 2.08301 25.0007 2.08301C37.6571 2.08301 47.9173 12.3432 47.9173 24.9997ZM6.26488 24.9997C6.26488 35.3472 14.6532 43.7355 25.0007 43.7355C35.3482 43.7355 43.7365 35.3472 43.7365 24.9997C43.7365 14.6522 35.3482 6.2639 25.0007 6.2639C14.6532 6.2639 6.26488 14.6522 6.26488 24.9997Z" fill="#818181"/>
<path d="M24.9993 10.417C23.8487 10.417 22.916 11.3497 22.916 12.5003V25.9726C22.916 25.9726 22.916 26.5157 23.18 26.9243C23.3566 27.2707 23.6321 27.5718 23.9939 27.7807L33.6185 33.3376C34.615 33.9128 35.8891 33.5714 36.4643 32.5749C37.0396 31.5785 36.6983 30.3043 35.7018 29.7291L27.0827 24.7528V12.5003C27.0827 11.3497 26.15 10.417 24.9993 10.417Z" fill="#888585"/>
</g>
<defs>
<clipPath id="clip0_457094_553137">
<rect width="50" height="50" fill="white"/>
</clipPath>
</defs>
</svg>
