<svg width="60" height="60" viewBox="0 0 60 60" fill="none" xmlns="http://www.w3.org/2000/svg">
<path d="M41.6455 23.2158C45.245 25.4654 47.0445 26.5901 47.6617 28.0304C48.2007 29.2879 48.2007 30.7116 47.6617 31.9694C47.0445 33.4094 45.245 34.5341 41.6455 36.7839L24.74 47.3499C20.7451 49.8466 18.7477 51.0951 17.0993 50.9624C15.6625 50.8469 14.3455 50.1171 13.486 48.9599C12.5 47.6324 12.5 45.2769 12.5 40.5659V19.4338C12.5 14.7229 12.5 12.3674 13.486 11.0398C14.3455 9.88264 15.6625 9.15266 17.0993 9.03714C18.7477 8.90464 20.7451 10.153 24.74 12.6498L41.6455 23.2158Z" stroke="black" stroke-width="5" stroke-linejoin="round"/>
</svg>
