<svg width="85" height="60" viewBox="0 0 85 60" fill="none" xmlns="http://www.w3.org/2000/svg">
<path d="M27.9587 33.5009C28.5385 33.4406 29.071 33.1536 29.4401 32.7025C29.8092 32.2513 29.9851 31.6726 29.9294 31.0923C29.382 25.9467 31.6811 20.9105 36.3888 18.1735C38.5939 16.8894 41.1262 16.2778 43.6744 16.4139C46.2225 16.5501 48.6752 17.4281 50.7309 18.9399C51.7162 19.7062 53.03 19.4873 53.7964 18.5019C54.5627 17.5166 54.3438 16.2028 53.3585 15.4365C50.6225 13.4103 47.3549 12.2262 43.9561 12.0293C40.5572 11.8324 37.1748 12.6312 34.2231 14.3278C31.2715 16.0244 28.8788 18.5452 27.3383 21.5813C25.7978 24.6173 25.1764 28.0368 25.5501 31.4208C25.5675 31.717 25.644 32.0068 25.7754 32.2729C25.9067 32.539 26.0901 32.7761 26.3147 32.97C26.5393 33.164 26.8005 33.3109 27.0829 33.4021C27.3653 33.4933 27.6631 33.5269 27.9587 33.5009ZM58.723 22.0053C58.966 21.6553 59.1854 21.2896 59.3799 20.9105C59.6993 20.4169 59.8096 19.8166 59.6864 19.2417C59.5632 18.6668 59.2167 18.1644 58.723 17.845C58.2294 17.5256 57.6292 17.4154 57.0543 17.5386C56.4794 17.6618 55.977 18.0083 55.6576 18.5019C52.1542 24.195 49.1982 26.932 43.3956 30.3259C37.5931 33.7199 33.7613 34.8147 27.0829 35.0336C26.5022 35.0627 25.9568 35.3212 25.5667 35.7524C25.1765 36.1836 24.9737 36.752 25.0027 37.3328C25.0318 37.9135 25.2903 38.4589 25.7215 38.849C26.1526 39.2391 26.7211 39.4419 27.3019 39.4129H28.5061C31.0112 43.0396 34.7876 45.5927 39.0865 46.5661C43.3855 47.5394 47.8933 46.862 51.7162 44.668C59.7084 40.1793 62.6644 30.2165 58.723 22.0053ZM49.5266 40.9457C47.0488 42.3999 44.16 42.9951 41.3091 42.6388C38.4582 42.2824 35.8049 40.9944 33.7613 38.975C37.8121 38.2086 41.3155 36.8948 45.6947 34.3768C50.074 31.8587 53.03 29.5596 55.6576 26.3846C56.3658 29.1482 56.1499 32.0677 55.0428 34.697C53.9357 37.3264 51.9983 39.521 49.5266 40.9457ZM33.1044 27.3699C33.1044 28.241 33.4504 29.0764 34.0664 29.6924C34.6823 30.3083 35.5177 30.6544 36.3888 30.6544C37.2599 30.6544 38.0953 30.3083 38.7113 29.6924C39.3272 29.0764 39.6733 28.241 39.6733 27.3699C39.6733 26.4988 39.3272 25.6634 38.7113 25.0475C38.0953 24.4315 37.2599 24.0855 36.3888 24.0855C35.5177 24.0855 34.6823 24.4315 34.0664 25.0475C33.4504 25.6634 33.1044 26.4988 33.1044 27.3699Z" fill="white"/>
</svg>
