<svg width="60" height="61" viewBox="0 0 60 61" fill="none" xmlns="http://www.w3.org/2000/svg">
<path d="M55 30.5C55 44.307 43.807 55.5 30 55.5C16.1929 55.5 5 44.307 5 30.5C5 16.6929 16.1929 5.5 30 5.5C43.807 5.5 55 16.6929 55 30.5Z" stroke="#909090" stroke-width="3.75"/>
<path d="M37.5 23C37.5 27.1423 34.1423 30.5 30 30.5C25.8577 30.5 22.5 27.1423 22.5 23C22.5 18.8579 25.8577 15.5 30 15.5C34.1423 15.5 37.5 18.8579 37.5 23Z" stroke="#909090" stroke-width="3.75"/>
<path d="M30 45.5V40.5" stroke="#909090" stroke-width="3.75" stroke-linecap="round"/>
<path d="M5 55.5L11.25 49.25" stroke="#909090" stroke-width="3.75" stroke-linecap="round"/>
<path d="M55 55.5L48.75 49.25" stroke="#909090" stroke-width="3.75" stroke-linecap="round"/>
</svg>
