<svg width="85" height="60" viewBox="0 0 85 60" fill="none" xmlns="http://www.w3.org/2000/svg">
<path fill-rule="evenodd" clip-rule="evenodd" d="M25 29.5C25 19.835 32.835 12 42.5 12C52.1649 12 60 19.835 60 29.5C60 39.1649 52.1649 47 42.5 47C32.835 47 25 39.1649 25 29.5ZM42.5 24.25C41.9776 24.25 41.5102 24.4767 41.187 24.8429C40.5475 25.5676 39.4415 25.6365 38.717 24.997C37.9924 24.3574 37.9234 23.2515 38.563 22.5269C39.5224 21.4399 40.9317 20.75 42.5 20.75C45.3996 20.75 47.75 23.1005 47.75 26C47.75 28.2876 46.2882 30.2299 44.25 30.9508V31.25C44.25 32.2165 43.4665 33 42.5 33C41.5335 33 40.75 32.2165 40.75 31.25V30.375C40.75 28.8497 41.9528 27.946 42.9344 27.6961C43.6918 27.5033 44.25 26.8146 44.25 26C44.25 25.0335 43.4665 24.25 42.5 24.25ZM42.5 34.75C41.5335 34.75 40.75 35.5335 40.75 36.5C40.75 37.4665 41.5335 38.25 42.5 38.25H42.5175C43.484 38.25 44.2675 37.4665 44.2675 36.5C44.2675 35.5335 43.484 34.75 42.5175 34.75H42.5Z" fill="white"/>
</svg>
