<svg width="40" height="41" viewBox="0 0 40 41" fill="none" xmlns="http://www.w3.org/2000/svg">
<path d="M18.3333 9.66667C18.3333 11.4797 17.7957 13.2519 16.7885 14.7594C15.7812 16.2668 14.3496 17.4418 12.6746 18.1356C10.9996 18.8294 9.1565 19.0109 7.37834 18.6572C5.60018 18.3035 3.96684 17.4305 2.68486 16.1485C1.40288 14.8665 0.529837 13.2332 0.176139 11.455C-0.177559 9.67684 0.0039718 7.83373 0.697775 6.15874C1.39158 4.48375 2.56649 3.05211 4.07394 2.04487C5.58139 1.03762 7.35367 0.500004 9.16667 0.500004C11.597 0.502749 13.927 1.4694 15.6454 3.18789C17.3639 4.90638 18.3306 7.23636 18.3333 9.66667ZM30.8333 18.8333C32.6463 18.8333 34.4186 18.2957 35.9261 17.2885C37.4335 16.2812 38.6084 14.8496 39.3022 13.1746C39.996 11.4996 40.1776 9.6565 39.8239 7.87834C39.4702 6.10018 38.5971 4.46684 37.3151 3.18486C36.0332 1.90288 34.3998 1.02984 32.6217 0.676139C30.8435 0.322441 29.0004 0.503972 27.3254 1.19777C25.6504 1.89158 24.2188 3.06649 23.2115 4.57394C22.2043 6.08139 21.6667 7.85367 21.6667 9.66667C21.6694 12.097 22.6361 14.427 24.3546 16.1454C26.073 17.8639 28.403 18.8306 30.8333 18.8333ZM9.16667 22.1667C7.35367 22.1667 5.58139 22.7043 4.07394 23.7115C2.56649 24.7188 1.39158 26.1504 0.697775 27.8254C0.0039718 29.5004 -0.177559 31.3435 0.176139 33.1217C0.529837 34.8998 1.40288 36.5332 2.68486 37.8151C3.96684 39.0971 5.60018 39.9702 7.37834 40.3239C9.1565 40.6776 10.9996 40.496 12.6746 39.8022C14.3496 39.1084 15.7812 37.9335 16.7885 36.4261C17.7957 34.9186 18.3333 33.1463 18.3333 31.3333C18.3306 28.903 17.3639 26.573 15.6454 24.8546C13.927 23.1361 11.597 22.1694 9.16667 22.1667ZM36.6667 29.6667H32.5V25.5C32.5 25.058 32.3244 24.634 32.0118 24.3215C31.6993 24.0089 31.2754 23.8333 30.8333 23.8333C30.3913 23.8333 29.9674 24.0089 29.6548 24.3215C29.3423 24.634 29.1667 25.058 29.1667 25.5V29.6667H25C24.558 29.6667 24.134 29.8423 23.8215 30.1548C23.5089 30.4674 23.3333 30.8913 23.3333 31.3333C23.3333 31.7754 23.5089 32.1993 23.8215 32.5118C24.134 32.8244 24.558 33 25 33H29.1667V37.1667C29.1667 37.6087 29.3423 38.0326 29.6548 38.3452C29.9674 38.6577 30.3913 38.8333 30.8333 38.8333C31.2754 38.8333 31.6993 38.6577 32.0118 38.3452C32.3244 38.0326 32.5 37.6087 32.5 37.1667V33H36.6667C37.1087 33 37.5326 32.8244 37.8452 32.5118C38.1577 32.1993 38.3333 31.7754 38.3333 31.3333C38.3333 30.8913 38.1577 30.4674 37.8452 30.1548C37.5326 29.8423 37.1087 29.6667 36.6667 29.6667Z" fill="#4D4D4D"/>
</svg>
