<svg width="46" height="20" viewBox="0 0 46 20" fill="none" xmlns="http://www.w3.org/2000/svg">
<path fill-rule="evenodd" clip-rule="evenodd" d="M2.22602 1.03863C1.99442 0.95182 1.73263 1.01447 1.56765 1.19489C1.40344 1.37606 1.37091 1.63724 1.4871 1.85087C1.4871 1.85087 3.85179 5.99135 6.19558 10.1454C8.53937 14.2987 10.8599 18.4633 10.8599 18.4633C10.9071 18.5509 11.0009 18.6052 11.1023 18.6052L35.135 18.5026C35.1979 18.5026 35.2543 18.4694 35.2836 18.4158L44.4723 1.63951C44.4977 1.59271 44.4907 1.53609 44.4551 1.49684C44.4196 1.45758 44.3629 1.44399 44.3127 1.46287L27.0952 7.89061L23.5261 3.03753C23.4905 2.98997 23.4339 2.96053 23.3727 2.95827C23.3123 2.956 23.2534 2.98091 23.214 3.0262L19.0546 7.65507C18.3296 7.3735 15.5343 6.2865 12.426 5.06661C7.68812 3.20586 2.22602 1.03863 2.22602 1.03863ZM3.21356 2.61858C5.16931 3.30702 8.83601 4.60011 12.1464 5.7762C15.81 7.07835 19.0345 8.2386 19.0345 8.2386C19.146 8.28011 19.2723 8.24915 19.3497 8.16083L23.3565 3.46479L26.9217 8.15102C26.9612 8.20386 27.0317 8.22501 27.0944 8.20085L44.0802 1.81917L35.0351 18.1742L11.2696 18.0723C10.8653 17.3053 8.88327 13.5438 6.919 9.77248C5.46826 6.98703 4.02684 4.197 3.21356 2.61858Z" fill="white"/>
<path fill-rule="evenodd" clip-rule="evenodd" d="M15.2175 18.9796C15.2175 18.9796 16.0742 18.3705 17.5071 17.4088C18.1678 16.9656 18.9447 16.4448 19.8261 15.8869C21.424 14.8747 23.3417 13.7272 25.3479 12.5142C27.1665 11.4151 29.0649 10.2752 30.9005 9.18972C31.9214 8.58581 32.9215 7.99703 33.8818 7.44824C34.3211 7.19686 34.7516 6.95455 35.1739 6.72507C36.6747 5.91055 38.0263 5.21003 39.1094 4.65143C40.7442 3.80975 41.7621 3.31607 41.7621 3.31607C42.0425 3.15 42.1322 2.79294 41.9627 2.51968C41.7931 2.24566 41.4266 2.1581 41.1457 2.32417C41.1457 2.32417 40.2254 2.97411 38.7017 3.99545C37.6918 4.67256 36.4293 5.51501 34.9925 6.43292C34.5882 6.6911 34.1684 6.95077 33.7363 7.21347C32.792 7.78868 31.7928 8.37898 30.7712 8.98063C28.9332 10.0631 27.017 11.175 25.1751 12.2356C23.1419 13.4057 21.2102 14.5304 19.5488 15.4416C18.6333 15.9436 17.7999 16.3731 17.0904 16.7384C15.5521 17.5295 14.6018 17.9877 14.6018 17.9877C14.3206 18.1531 14.2307 18.5101 14.4011 18.7834C14.5708 19.0574 14.9371 19.145 15.2175 18.9796Z" fill="white"/>
<path fill-rule="evenodd" clip-rule="evenodd" d="M5.6015 3.57726C5.6015 3.57726 6.23042 3.82107 7.25206 4.26796C7.7222 4.47328 8.27136 4.71333 8.87475 5.007C9.96531 5.53766 11.2255 6.21477 12.5538 6.91529C13.7575 7.54939 15.0076 8.21744 16.2051 8.87267C16.8712 9.23653 17.5218 9.5951 18.1345 9.94837C18.4148 10.1107 18.6867 10.2715 18.947 10.4337C19.8757 11.0127 20.682 11.5502 21.3295 11.9858C22.3093 12.644 22.8902 13.0675 22.8902 13.0675C23.1768 13.2245 23.5393 13.1256 23.7004 12.8471C23.8615 12.5678 23.76 12.2145 23.4742 12.0575C23.4742 12.0575 22.8011 11.7925 21.716 11.3169C20.9987 11.0029 20.1088 10.6096 19.1189 10.1356C18.8416 10.0027 18.5597 9.85928 18.2723 9.70983C17.645 9.3822 16.9928 9.02592 16.3282 8.65981C15.1323 8.00157 13.8985 7.30482 12.7181 6.63146C11.4145 5.88716 10.1675 5.18741 9.13655 4.55331C8.56648 4.20306 8.07075 3.87014 7.64708 3.58481C6.72536 2.9643 6.18551 2.56724 6.18551 2.56724C5.89894 2.40947 5.53645 2.50912 5.37454 2.78766C5.21422 3.06621 5.31491 3.42025 5.6015 3.57726Z" fill="white"/>
<path fill-rule="evenodd" clip-rule="evenodd" d="M22.7701 3.14849C22.7701 3.14849 22.8569 3.48969 22.9568 4.08452C23.0025 4.35477 23.0552 4.66427 23.0862 5.02058C23.1427 5.65769 23.152 6.41179 23.1729 7.20366C23.1915 7.92003 23.2031 8.66658 23.2008 9.38598C23.1992 9.78606 23.1954 10.1779 23.1783 10.55C23.1698 10.7214 23.1582 10.8874 23.1404 11.049C23.0738 11.631 22.9862 12.1322 22.9119 12.5436C22.7988 13.1739 22.7051 13.5401 22.7051 13.5401C22.7028 13.8601 22.9676 14.1213 23.296 14.1236C23.6245 14.1258 23.8925 13.8677 23.8948 13.5476C23.8948 13.5476 23.8049 13.1807 23.6996 12.5482C23.6307 12.136 23.5501 11.6333 23.4905 11.0505C23.4742 10.8889 23.4649 10.7229 23.4595 10.5515C23.4463 10.1786 23.4471 9.78758 23.451 9.38749C23.4579 8.6681 23.4789 7.92154 23.5067 7.20518C23.5377 6.41405 23.5563 5.65995 23.6206 5.02358C23.657 4.66804 23.7128 4.35854 23.7616 4.08906C23.87 3.49573 23.9599 3.15528 23.9599 3.15528C23.9622 2.83522 23.6973 2.57403 23.3689 2.57177C23.0404 2.5695 22.7725 2.82842 22.7701 3.14849Z" fill="white"/>
<path fill-rule="evenodd" clip-rule="evenodd" d="M19.0004 7.36521C18.9942 7.36672 19.0012 7.37427 19.0035 7.39314C19.0105 7.45201 19.026 7.48824 19.0291 7.6581C19.0314 7.78568 19.0415 7.87625 19.0066 8.05289C18.9989 8.09215 18.9865 8.12612 18.9679 8.16386C18.9307 8.2386 18.8796 8.31105 18.8254 8.38353C18.727 8.51336 18.6139 8.63868 18.4993 8.75493C18.3692 8.88777 18.2545 9.0146 18.1267 9.09386C18.0322 9.1535 17.9741 9.16179 17.892 9.18669C17.7325 9.23501 17.6961 9.22972 17.6395 9.24182C17.6217 9.24559 17.6124 9.24105 17.6132 9.24711C17.6744 9.57545 17.7503 9.78606 17.8231 9.92196C17.4436 9.61848 17.5226 9.89931 17.7464 10.0563C17.8479 10.1273 17.9641 10.162 18.0803 10.165C18.0888 10.1658 18.0934 10.165 18.0934 10.165C18.0934 10.165 18.6085 10.3658 18.5752 9.92496L18.5729 9.89476C18.5659 9.83892 18.5496 9.80722 18.5457 9.64416C18.5434 9.56036 18.5334 9.50452 18.5605 9.39807C18.5969 9.25388 18.6836 9.10821 18.7712 8.94515C18.8478 8.80248 18.9338 8.65829 19.0283 8.52543C19.081 8.4522 19.1352 8.38201 19.1964 8.32314C19.2274 8.29444 19.256 8.27179 19.2916 8.25292C19.3443 8.2235 19.39 8.2016 19.4318 8.18424L19.4822 8.28011C19.4822 8.28011 19.507 8.22727 19.5341 8.14573H19.5364L19.5705 8.13518C19.5178 8.21366 19.4822 8.28011 19.4822 8.28011C19.5689 8.21595 19.6433 8.15405 19.7068 8.09366C19.8408 8.05441 19.8795 8.0559 19.9345 8.04457C19.9531 8.0408 19.9632 8.04534 19.9624 8.03931C19.9469 7.95477 19.9221 7.90719 19.8919 7.88606C20.1049 7.58639 20.0197 7.36295 19.8292 7.22931C19.562 7.04287 19.1902 7.10251 18.9989 7.36218L19.0004 7.36521Z" fill="white"/>
<path fill-rule="evenodd" clip-rule="evenodd" d="M27.0882 8.67264C27.1394 8.69906 27.1951 8.73151 27.2602 8.77606C27.2966 8.80096 27.3268 8.82815 27.3586 8.86286C27.4221 8.93231 27.4778 9.0146 27.5321 9.09914C27.6297 9.25237 27.7187 9.41846 27.7977 9.58074C27.8868 9.76419 27.9774 9.93176 28.0146 10.0918C28.0409 10.205 28.0316 10.2715 28.0293 10.3598C28.0247 10.5251 28.0068 10.5696 27.9999 10.627C27.9557 10.9946 28.2679 10.975 28.4189 10.9448C28.501 10.9456 28.6722 10.9244 28.8178 10.8338C28.9193 10.7704 28.9944 10.6821 29.0401 10.5825C29.2632 10.3937 29.3879 10.171 28.9991 10.0344L28.9983 10.0337L28.9689 10.0239C28.9123 10.0057 28.8635 10.0035 28.7071 9.93779C28.6242 9.90231 28.5583 9.8827 28.4646 9.81174C28.3306 9.71135 28.2129 9.56113 28.0797 9.40488C27.9612 9.26672 27.8442 9.11876 27.7427 8.9678C27.687 8.88399 27.6335 8.80096 27.5956 8.7149C27.577 8.67264 27.5638 8.6349 27.5561 8.59187C27.5212 8.40465 27.5305 8.29746 27.5336 8.16234C27.5375 7.98948 27.5537 7.93967 27.5607 7.87928C27.649 7.14025 27.1975 8.36691 27.0882 8.67264ZM26.5662 8.47336C26.5662 8.47413 26.567 8.47488 26.567 8.47488L26.5724 8.47636L27.0642 8.73906C27.0642 8.73906 27.0426 8.69452 27.0085 8.6349L27.0534 8.65529L27.0828 8.67038L27.0642 8.73906L27.0882 8.67264L27.0828 8.67038C27.374 7.5743 27.0147 7.50184 26.7436 7.67094C26.467 7.84303 26.3865 8.2016 26.5631 8.4711L26.5662 8.47336Z" fill="white"/>
<path d="M18.5752 9.92496C18.6085 10.3658 18.0934 10.165 18.0934 10.165C18.0934 10.165 18.0888 10.1658 18.0803 10.165C17.9641 10.162 17.8479 10.1273 17.7464 10.0563C17.5226 9.89931 17.4436 9.61848 17.8231 9.92196C17.7503 9.78606 17.6744 9.57545 17.6132 9.24711C17.6124 9.24105 17.6217 9.24559 17.6395 9.24182C17.6961 9.22972 17.7325 9.23501 17.892 9.18669C17.9741 9.16179 18.0322 9.1535 18.1267 9.09386C18.2545 9.0146 18.3692 8.88777 18.4993 8.75493C18.6139 8.63868 18.727 8.51336 18.8254 8.38353C18.8796 8.31105 18.9307 8.2386 18.9679 8.16386C18.9865 8.12612 18.9989 8.09215 19.0066 8.05289C19.0415 7.87625 19.0314 7.78567 19.0291 7.6581C19.026 7.48824 19.0105 7.45201 19.0035 7.39314C19.0012 7.37427 18.9942 7.36672 19.0004 7.36521L18.9989 7.36218C19.1902 7.10251 19.562 7.04287 19.8292 7.22931C20.0197 7.36295 20.1049 7.58639 19.8919 7.88606C19.9221 7.90719 19.9469 7.95477 19.9624 8.03931C19.9632 8.04534 19.9531 8.0408 19.9345 8.04457C19.8795 8.0559 19.8408 8.05441 19.7068 8.09366C19.6433 8.15405 19.5689 8.21595 19.4822 8.28011M18.5752 9.92496L18.5767 9.92347M18.5752 9.92496L18.5729 9.89476C18.5659 9.83892 18.5496 9.80722 18.5457 9.64416C18.5434 9.56036 18.5334 9.50452 18.5605 9.39807C18.5969 9.25388 18.6836 9.10821 18.7712 8.94515C18.8478 8.80248 18.9338 8.65829 19.0283 8.52543C19.081 8.4522 19.1352 8.38201 19.1964 8.32314C19.2274 8.29444 19.256 8.27179 19.2916 8.25292C19.3443 8.2235 19.39 8.2016 19.4318 8.18424L19.4822 8.28011M19.4822 8.28011C19.4822 8.28011 19.507 8.22727 19.5341 8.14573H19.5364L19.5705 8.13518C19.5178 8.21366 19.4822 8.28011 19.4822 8.28011ZM27.0882 8.67264C27.1394 8.69906 27.1951 8.73151 27.2602 8.77606C27.2966 8.80096 27.3268 8.82815 27.3586 8.86286C27.4221 8.93231 27.4778 9.0146 27.5321 9.09914C27.6297 9.25237 27.7187 9.41846 27.7977 9.58074C27.8868 9.76419 27.9774 9.93176 28.0146 10.0918C28.0409 10.205 28.0316 10.2715 28.0293 10.3598C28.0247 10.5251 28.0068 10.5696 27.9999 10.627C27.9557 10.9946 28.2679 10.975 28.4189 10.9448C28.501 10.9456 28.6722 10.9244 28.8178 10.8338C28.9193 10.7704 28.9944 10.6821 29.0401 10.5825C29.2632 10.3937 29.3879 10.171 28.9991 10.0344L28.9983 10.0337L28.9689 10.0239C28.9123 10.0057 28.8635 10.0035 28.7071 9.93779C28.6242 9.90231 28.5583 9.8827 28.4646 9.81174C28.3306 9.71135 28.2129 9.56113 28.0797 9.40488C27.9612 9.26672 27.8442 9.11876 27.7427 8.9678C27.687 8.88399 27.6335 8.80096 27.5956 8.7149C27.577 8.67264 27.5638 8.6349 27.5561 8.59187C27.5212 8.40466 27.5305 8.29746 27.5336 8.16234C27.5375 7.98948 27.5537 7.93967 27.5607 7.87928C27.649 7.14025 27.1975 8.36691 27.0882 8.67264ZM27.0882 8.67264L27.0642 8.73906M27.0882 8.67264L27.0828 8.67038M27.0642 8.73906L26.5724 8.47636L26.567 8.47488C26.567 8.47488 26.5662 8.47413 26.5662 8.47336L26.5631 8.4711C26.3865 8.2016 26.467 7.84303 26.7436 7.67094C27.0147 7.50184 27.374 7.5743 27.0828 8.67038M27.0642 8.73906C27.0642 8.73906 27.0426 8.69452 27.0085 8.6349L27.0534 8.65529L27.0828 8.67038M27.0642 8.73906L27.0828 8.67038M2.22602 1.03863C1.99442 0.95182 1.73263 1.01447 1.56765 1.19489C1.40344 1.37606 1.37091 1.63724 1.4871 1.85087C1.4871 1.85087 3.85179 5.99135 6.19558 10.1454C8.53937 14.2987 10.8599 18.4633 10.8599 18.4633C10.9071 18.5509 11.0009 18.6052 11.1023 18.6052L35.135 18.5026C35.1979 18.5026 35.2543 18.4694 35.2836 18.4158L44.4723 1.63951C44.4977 1.59271 44.4907 1.53609 44.4551 1.49684C44.4196 1.45758 44.3629 1.44399 44.3127 1.46287L27.0952 7.89061L23.5261 3.03753C23.4905 2.98997 23.4339 2.96053 23.3727 2.95827C23.3123 2.956 23.2534 2.98091 23.214 3.0262L19.0546 7.65507C18.3296 7.3735 15.5343 6.2865 12.426 5.06661C7.68812 3.20587 2.22602 1.03863 2.22602 1.03863ZM3.21356 2.61858C5.16931 3.30702 8.83601 4.60011 12.1464 5.7762C15.81 7.07835 19.0345 8.2386 19.0345 8.2386C19.146 8.28011 19.2723 8.24915 19.3497 8.16083L23.3565 3.46479L26.9217 8.15102C26.9612 8.20386 27.0317 8.22501 27.0944 8.20085L44.0802 1.81917L35.0351 18.1742L11.2696 18.0723C10.8653 17.3053 8.88327 13.5438 6.919 9.77248C5.46826 6.98703 4.02684 4.197 3.21356 2.61858ZM15.2175 18.9796C15.2175 18.9796 16.0742 18.3705 17.5071 17.4088C18.1678 16.9656 18.9447 16.4448 19.8261 15.8869C21.424 14.8747 23.3417 13.7272 25.3479 12.5142C27.1665 11.4151 29.0649 10.2752 30.9005 9.18972C31.9214 8.58581 32.9215 7.99703 33.8818 7.44824C34.3211 7.19686 34.7516 6.95455 35.1739 6.72507C36.6747 5.91055 38.0263 5.21003 39.1094 4.65143C40.7442 3.80975 41.7621 3.31607 41.7621 3.31607C42.0425 3.15 42.1322 2.79294 41.9627 2.51968C41.7931 2.24566 41.4266 2.1581 41.1457 2.32417C41.1457 2.32417 40.2254 2.97411 38.7017 3.99545C37.6918 4.67256 36.4293 5.51501 34.9925 6.43292C34.5882 6.6911 34.1684 6.95077 33.7363 7.21347C32.792 7.78868 31.7928 8.37898 30.7712 8.98063C28.9332 10.0631 27.017 11.175 25.1751 12.2356C23.1419 13.4057 21.2102 14.5304 19.5488 15.4416C18.6333 15.9436 17.7999 16.3731 17.0904 16.7384C15.5521 17.5295 14.6018 17.9877 14.6018 17.9877C14.3206 18.1531 14.2307 18.5101 14.4011 18.7834C14.5708 19.0574 14.9371 19.145 15.2175 18.9796ZM5.6015 3.57726C5.6015 3.57726 6.23042 3.82107 7.25206 4.26796C7.7222 4.47328 8.27136 4.71333 8.87475 5.007C9.96531 5.53766 11.2255 6.21477 12.5538 6.91529C13.7575 7.54939 15.0076 8.21744 16.2051 8.87267C16.8712 9.23653 17.5218 9.5951 18.1345 9.94837C18.4148 10.1107 18.6867 10.2715 18.947 10.4337C19.8757 11.0127 20.682 11.5502 21.3295 11.9858C22.3093 12.644 22.8902 13.0675 22.8902 13.0675C23.1768 13.2245 23.5393 13.1256 23.7004 12.8471C23.8615 12.5678 23.76 12.2145 23.4742 12.0575C23.4742 12.0575 22.8011 11.7925 21.716 11.3169C20.9987 11.0029 20.1088 10.6096 19.1189 10.1356C18.8416 10.0027 18.5597 9.85928 18.2723 9.70983C17.645 9.3822 16.9928 9.02592 16.3282 8.65981C15.1323 8.00157 13.8985 7.30482 12.7181 6.63146C11.4145 5.88716 10.1675 5.18741 9.13655 4.55331C8.56648 4.20306 8.07075 3.87014 7.64708 3.58481C6.72536 2.9643 6.18551 2.56724 6.18551 2.56724C5.89894 2.40947 5.53645 2.50912 5.37454 2.78766C5.21422 3.06621 5.31491 3.42025 5.6015 3.57726ZM22.7701 3.14849C22.7701 3.14849 22.8569 3.48969 22.9568 4.08452C23.0025 4.35477 23.0552 4.66427 23.0862 5.02058C23.1427 5.65769 23.152 6.41179 23.1729 7.20366C23.1915 7.92003 23.2031 8.66658 23.2008 9.38598C23.1992 9.78606 23.1954 10.1779 23.1783 10.55C23.1698 10.7214 23.1582 10.8874 23.1404 11.049C23.0738 11.631 22.9862 12.1322 22.9119 12.5436C22.7988 13.1739 22.7051 13.5401 22.7051 13.5401C22.7028 13.8601 22.9676 14.1213 23.296 14.1236C23.6245 14.1258 23.8925 13.8677 23.8948 13.5476C23.8948 13.5476 23.8049 13.1807 23.6996 12.5482C23.6307 12.136 23.5501 11.6333 23.4905 11.0505C23.4742 10.8889 23.4649 10.7229 23.4595 10.5515C23.4463 10.1786 23.4471 9.78758 23.451 9.38749C23.4579 8.6681 23.4789 7.92154 23.5067 7.20518C23.5377 6.41405 23.5563 5.65995 23.6206 5.02358C23.657 4.66804 23.7128 4.35854 23.7616 4.08906C23.87 3.49573 23.9599 3.15528 23.9599 3.15528C23.9622 2.83522 23.6973 2.57403 23.3689 2.57177C23.0404 2.5695 22.7725 2.82842 22.7701 3.14849Z" stroke="white"/>
</svg>
