<svg width="37" height="35" viewBox="0 0 37 35" fill="none" xmlns="http://www.w3.org/2000/svg">
<path d="M1.54686 18.3108C1.54686 17.6018 2.13549 17.027 2.86158 17.027C12.3009 17.027 19.9529 24.499 19.9529 33.7162C19.9529 34.4252 19.3643 35 18.6382 35C17.9121 35 17.3235 34.4252 17.3235 33.7162C17.3235 25.9171 10.8487 19.5946 2.86158 19.5946C2.13549 19.5946 1.54686 19.0198 1.54686 18.3108Z" fill="white"/>
<path d="M1.54686 23.0811C1.54686 22.3497 2.15408 21.7568 2.9031 21.7568C9.64435 21.7568 15.1092 27.0931 15.1092 33.6757C15.1092 34.4071 14.502 35 13.753 35C13.004 35 12.3968 34.4071 12.3968 33.6757C12.3968 28.5558 8.14631 24.4054 2.9031 24.4054C2.15408 24.4054 1.54686 23.8125 1.54686 23.0811Z" fill="white"/>
<path d="M2.83852 27.4324C2.12516 27.4324 1.54686 27.9971 1.54686 28.6937C1.54686 29.3902 2.12516 29.955 2.83852 29.955C4.9786 29.955 6.71348 31.6491 6.71348 33.7387C6.71348 34.4353 7.29178 35 8.00513 35C8.71848 35 9.29678 34.4353 9.29678 33.7387C9.29678 30.2558 6.40532 27.4324 2.83852 27.4324Z" fill="white"/>
<path d="M0.621962 14.3891C1.15085 14.1403 1.7439 14.0008 2.37029 14.0008C13.5054 14.0008 22.5322 22.8157 22.5322 33.6894C22.5322 34.1489 22.4515 34.59 22.3035 35C27.2879 34.983 29.9654 34.8187 31.8533 33.2312C33.9591 31.4604 34.3958 28.4963 35.2695 22.5678L35.769 19.1774C36.4491 14.5622 36.7891 12.2547 35.8204 10.2817C34.8519 8.30876 32.7902 7.10949 28.667 4.71094L26.185 3.2672C22.4408 1.08907 20.5685 0 18.4998 0C16.4311 0 14.5589 1.08907 10.8145 3.2672L8.33268 4.71093C4.2094 7.10949 2.14776 8.30876 1.17917 10.2817C0.622518 11.4155 0.49807 12.6599 0.621962 14.3891Z" fill="white"/>
</svg>
