<svg width="35" height="35" viewBox="0 0 35 35" fill="none" xmlns="http://www.w3.org/2000/svg">
<path d="M16.0417 8.02083C16.0417 9.60721 15.5713 11.158 14.6899 12.477C13.8086 13.796 12.5559 14.824 11.0903 15.4311C9.62466 16.0382 8.01194 16.197 6.45605 15.8875C4.90016 15.5781 3.47098 14.8142 2.34925 13.6924C1.22752 12.5707 0.463607 11.1415 0.154122 9.58562C-0.155364 8.02973 0.00347533 6.41701 0.610553 4.9514C1.21763 3.48578 2.24568 2.2331 3.5647 1.35176C4.88372 0.470417 6.43446 3.63062e-06 8.02083 3.63062e-06C10.1474 0.00240542 12.1861 0.848227 13.6898 2.3519C15.1934 3.85558 16.0393 5.89432 16.0417 8.02083ZM26.9792 16.0417C28.5655 16.0417 30.1163 15.5713 31.4353 14.6899C32.7543 13.8086 33.7824 12.5559 34.3894 11.0903C34.9965 9.62466 35.1554 8.01194 34.8459 6.45605C34.5364 4.90016 33.7725 3.47098 32.6507 2.34925C31.529 1.22752 30.0998 0.463607 28.5439 0.154122C26.9881 -0.155364 25.3753 0.00347533 23.9097 0.610553C22.4441 1.21763 21.1914 2.24568 20.3101 3.5647C19.4287 4.88372 18.9583 6.43446 18.9583 8.02083C18.9607 10.1474 19.8066 12.1861 21.3102 13.6898C22.8139 15.1934 24.8526 16.0393 26.9792 16.0417ZM8.02083 18.9583C6.43446 18.9583 4.88372 19.4287 3.5647 20.3101C2.24568 21.1914 1.21763 22.4441 0.610553 23.9097C0.00347533 25.3753 -0.155364 26.9881 0.154122 28.5439C0.463607 30.0998 1.22752 31.529 2.34925 32.6507C3.47098 33.7725 4.90016 34.5364 6.45605 34.8459C8.01194 35.1554 9.62466 34.9965 11.0903 34.3894C12.5559 33.7824 13.8086 32.7543 14.6899 31.4353C15.5713 30.1163 16.0417 28.5655 16.0417 26.9792C16.0393 24.8526 15.1934 22.8139 13.6898 21.3102C12.1861 19.8066 10.1474 18.9607 8.02083 18.9583ZM32.0833 25.5208H28.4375V21.875C28.4375 21.4882 28.2839 21.1173 28.0104 20.8438C27.7369 20.5703 27.3659 20.4167 26.9792 20.4167C26.5924 20.4167 26.2215 20.5703 25.948 20.8438C25.6745 21.1173 25.5208 21.4882 25.5208 21.875V25.5208H21.875C21.4882 25.5208 21.1173 25.6745 20.8438 25.948C20.5703 26.2215 20.4167 26.5924 20.4167 26.9792C20.4167 27.3659 20.5703 27.7369 20.8438 28.0104C21.1173 28.2839 21.4882 28.4375 21.875 28.4375H25.5208V32.0833C25.5208 32.4701 25.6745 32.841 25.948 33.1145C26.2215 33.388 26.5924 33.5417 26.9792 33.5417C27.3659 33.5417 27.7369 33.388 28.0104 33.1145C28.2839 32.841 28.4375 32.4701 28.4375 32.0833V28.4375H32.0833C32.4701 28.4375 32.841 28.2839 33.1145 28.0104C33.388 27.7369 33.5417 27.3659 33.5417 26.9792C33.5417 26.5924 33.388 26.2215 33.1145 25.948C32.841 25.6745 32.4701 25.5208 32.0833 25.5208Z" fill="white"/>
</svg>
