<svg width="68" height="48" viewBox="0 0 68 48" fill="none" xmlns="http://www.w3.org/2000/svg">
<path d="M22.4423 26.8379C22.8987 26.7904 23.3179 26.5645 23.6084 26.2094C23.899 25.8543 24.0375 25.3987 23.9936 24.9419C23.5627 20.8914 25.3725 16.927 29.0783 14.7725C30.8141 13.7617 32.8075 13.2802 34.8134 13.3874C36.8192 13.4946 38.7499 14.1857 40.3681 15.3758C41.1438 15.979 42.1779 15.8067 42.7812 15.031C43.3845 14.2554 43.2121 13.2212 42.4365 12.6179C40.2828 11.023 37.7106 10.0909 35.0351 9.93591C32.3596 9.7809 29.697 10.4097 27.3735 11.7452C25.0501 13.0808 23.1666 15.0651 21.9539 17.455C20.7413 19.8449 20.2521 22.5367 20.5463 25.2005C20.56 25.4337 20.6203 25.6618 20.7236 25.8712C20.827 26.0807 20.9714 26.2673 21.1482 26.42C21.325 26.5727 21.5306 26.6884 21.7529 26.7602C21.9752 26.8319 22.2096 26.8584 22.4423 26.8379ZM46.6594 17.7888C46.8506 17.5133 47.0233 17.2254 47.1765 16.927C47.4279 16.5385 47.5147 16.0659 47.4177 15.6134C47.3207 15.1608 47.0479 14.7654 46.6594 14.5139C46.2708 14.2625 45.7983 14.1757 45.3457 14.2727C44.8932 14.3697 44.4977 14.6425 44.2463 15.031C41.4885 19.5125 39.1616 21.667 34.5939 24.3386C30.0263 27.0103 27.01 27.8721 21.7529 28.0445C21.2958 28.0673 20.8664 28.2708 20.5593 28.6102C20.2523 28.9496 20.0926 29.3971 20.1154 29.8543C20.1383 30.3114 20.3418 30.7407 20.6812 31.0478C21.0206 31.3549 21.4681 31.5146 21.9253 31.4917H22.8732C24.8452 34.3466 27.8178 36.3563 31.2019 37.1225C34.586 37.8887 38.1344 37.3555 41.1438 35.6284C47.435 32.095 49.7619 24.2525 46.6594 17.7888ZM39.4201 32.6983C37.4696 33.843 35.1956 34.3116 32.9515 34.0311C30.7073 33.7505 28.6187 32.7367 27.01 31.147C30.1987 30.5437 32.9565 29.5095 36.4038 27.5274C39.851 25.5452 42.1779 23.7354 44.2463 21.2361C44.8038 23.4116 44.6339 25.7097 43.7624 27.7795C42.8909 29.8492 41.3658 31.5768 39.4201 32.6983ZM26.4929 22.0117C26.4929 22.6974 26.7653 23.3551 27.2501 23.8399C27.735 24.3248 28.3926 24.5972 29.0783 24.5972C29.764 24.5972 30.4216 24.3248 30.9065 23.8399C31.3914 23.3551 31.6638 22.6974 31.6638 22.0117C31.6638 21.326 31.3914 20.6684 30.9065 20.1836C30.4216 19.6987 29.764 19.4263 29.0783 19.4263C28.3926 19.4263 27.735 19.6987 27.2501 20.1836C26.7653 20.6684 26.4929 21.326 26.4929 22.0117Z" fill="white"/>
</svg>
